<svg width="76" height="76" viewBox="0 0 76 76" fill="none" xmlns="http://www.w3.org/2000/svg">
<path d="M24.6234 47.8182C28.3475 47.8182 31.1406 45.7143 31.1406 45.7143C31.1406 45.7143 33.9337 47.8182 37.6579 47.8182C41.382 47.8182 45.1062 45.7143 45.1062 45.7143C45.1062 45.7143 48.8302 47.8182 51.6234 47.8182" stroke="#7C7C7C" stroke-width="3" stroke-linecap="round" stroke-linejoin="round"/>
<path d="M24.3766 28.1818L29.6364 33.9675C33.1429 34.8442 34.8961 35.1948 37.8766 36.9481L42.4351 43.0844" stroke="#7C7C7C" stroke-width="3" stroke-linecap="round" stroke-linejoin="round"/>
<path d="M42.6234 38C44.0041 38 45.1234 36.8807 45.1234 35.5C45.1234 34.1193 44.0041 33 42.6234 33C41.2427 33 40.1234 34.1193 40.1234 35.5C40.1234 36.8807 41.2427 38 42.6234 38Z" fill="#7C7C7C"/>
</svg>
